<svg width="20" height="20" viewBox="0 0 20 20" fill="none" xmlns="http://www.w3.org/2000/svg">
<g clip-path="url(#clip0_1846_240)">
<path d="M19.8846 4.17858C19.7701 4.0145 19.5859 3.91308 19.3858 3.90453L6.97957 3.36977C6.62362 3.35419 6.32616 3.629 6.31094 3.9833C6.29581 4.33747 6.57018 4.63672 6.92443 4.65194L18.4907 5.15053L16.2165 12.2461H6.0962L4.26781 2.29067C4.22762 2.07247 4.07781 1.89045 3.87121 1.80939L0.876627 0.632941C0.546586 0.503726 0.174159 0.665837 0.0445415 0.995476C-0.0848523 1.32529 0.0772144 1.69794 0.407077 1.82756L3.06974 2.87359L4.9304 13.0038C4.98648 13.3083 5.25189 13.5295 5.56166 13.5295H5.87031L5.16551 15.4872C5.10652 15.6512 5.13082 15.8333 5.23121 15.9757C5.33147 16.1183 5.49452 16.203 5.66858 16.203H6.16293C5.85661 16.5439 5.66858 16.9928 5.66858 17.4864C5.66858 18.548 6.53236 19.4116 7.59369 19.4116C8.65502 19.4116 9.5188 18.548 9.5188 17.4864C9.5188 16.9929 9.33077 16.5439 9.0245 16.203H13.2217C12.9153 16.5439 12.7273 16.9928 12.7273 17.4864C12.7273 18.548 13.5908 19.4116 14.6524 19.4116C15.714 19.4116 16.5775 18.548 16.5775 17.4864C16.5775 16.9929 16.3895 16.5439 16.0833 16.203H16.6845C16.9799 16.203 17.2192 15.9636 17.2192 15.6683C17.2192 15.3729 16.9798 15.1335 16.6845 15.1335H6.42946L7.00692 13.5293H16.6844C16.9635 13.5293 17.2104 13.349 17.2954 13.0835L19.9692 4.74132C20.0306 4.55092 19.9991 4.34275 19.8846 4.17858ZM7.59374 18.3423C7.12186 18.3423 6.73811 17.9585 6.73811 17.4867C6.73811 17.0148 7.12186 16.631 7.59374 16.631C8.06561 16.631 8.44932 17.0148 8.44932 17.4867C8.44932 17.9585 8.06561 18.3423 7.59374 18.3423ZM14.6524 18.3423C14.1805 18.3423 13.7968 17.9585 13.7968 17.4867C13.7968 17.0148 14.1805 16.631 14.6524 16.631C15.1243 16.631 15.508 17.0148 15.508 17.4867C15.508 17.9585 15.1243 18.3423 14.6524 18.3423Z" fill="#767272"/>
</g>
<defs>
<clipPath id="clip0_1846_240">
<rect width="20" height="20" fill="white"/>
</clipPath>
</defs>
</svg>
