<svg width="20" height="20" viewBox="0 0 20 20" fill="none" xmlns="http://www.w3.org/2000/svg">
<path d="M14.5 1C12.76 1 11.09 1.81 10 3.09C8.91 1.81 7.24 1 5.5 1C2.42 1 0 3.42 0 6.5C0 10.28 3.4 13.36 8.55 18.04L10 19.35L11.45 18.03C16.6 13.36 20 10.28 20 6.5C20 3.42 17.58 1 14.5 1ZM10.1 16.55L10 16.65L9.9 16.55C5.14 12.24 2 9.39 2 6.5C2 4.5 3.5 3 5.5 3C7.04 3 8.54 3.99 9.07 5.36H10.94C11.46 3.99 12.96 3 14.5 3C16.5 3 18 4.5 18 6.5C18 9.39 14.86 12.24 10.1 16.55Z" fill="black"/>
<path d="M9.99984 17.7917L8.7915 16.6917C4.49984 12.8 1.6665 10.2333 1.6665 7.08333C1.6665 4.51667 3.68317 2.5 6.24984 2.5C7.69984 2.5 9.0915 3.175 9.99984 4.24167C10.9082 3.175 12.2998 2.5 13.7498 2.5C16.3165 2.5 18.3332 4.51667 18.3332 7.08333C18.3332 10.2333 15.4998 12.8 11.2082 16.7L9.99984 17.7917Z" fill="#F05454"/>
</svg>
