<svg width="26" height="26" viewBox="0 0 26 26" fill="none" xmlns="http://www.w3.org/2000/svg">
<g clip-path="url(#clip0_1846_182)">
<path d="M13.9902 25.9083H12.409C11.1301 25.9083 10.0895 24.8781 10.0895 23.6118V23.0821C9.54583 22.9101 9.01757 22.693 8.51007 22.433L8.13096 22.8084C7.21277 23.7186 5.74195 23.6919 4.85043 22.808L3.73284 21.7015C2.83974 20.8182 2.81405 19.3623 3.73313 18.4533L4.11195 18.0782C3.84932 17.5757 3.63009 17.0528 3.45633 16.5143H2.92143C1.64258 16.5143 0.602051 15.4841 0.602051 14.2178V12.6521C0.602051 11.3858 1.64258 10.3556 2.92148 10.3556H3.45638C3.63014 9.81721 3.84937 9.29421 4.112 8.79172L3.73289 8.4164C2.81435 7.50789 2.83969 6.05192 3.73318 5.16821L4.85087 4.06159C5.74446 3.17559 7.21493 3.15347 8.13136 4.06188L8.51012 4.43691C9.01762 4.17692 9.54588 3.95981 10.0896 3.78776V3.25813C10.0896 1.99184 11.1301 0.961624 12.409 0.961624H13.9903C15.2692 0.961624 16.3096 1.99184 16.3096 3.25813V3.78781C16.8533 3.95981 17.3816 4.17692 17.8891 4.43696L18.2682 4.06159C19.1864 3.15133 20.6572 3.17803 21.5487 4.06193L22.6663 5.16846C23.5594 6.05177 23.5851 7.5076 22.666 8.41664L22.2872 8.79172C22.5499 9.29421 22.7691 9.81717 22.9428 10.3556H23.4777C24.7566 10.3556 25.7972 11.3858 25.7972 12.6521V14.2178C25.7972 15.4841 24.7566 16.5143 23.4777 16.5143H22.9428C22.7691 17.0527 22.5499 17.5757 22.2872 18.0782L22.6663 18.4536C23.5849 19.3621 23.5595 20.8181 22.666 21.7018L21.5483 22.8084C20.6548 23.6944 19.1843 23.7165 18.2679 22.8081L17.8891 22.4331C17.3816 22.6931 16.8533 22.9102 16.3096 23.0822V23.6119C16.3096 24.8781 15.2692 25.9083 13.9902 25.9083ZM8.75686 20.898C9.46188 21.3109 10.2207 21.6228 11.0122 21.825C11.3381 21.9083 11.5659 22.1994 11.5659 22.5327V23.6118C11.5659 24.0721 11.9441 24.4466 12.409 24.4466H13.9903C14.4551 24.4466 14.8334 24.0721 14.8334 23.6118V22.5327C14.8334 22.1994 15.0611 21.9083 15.3871 21.825C16.1786 21.6228 16.9374 21.3109 17.6424 20.898C17.9325 20.7282 18.3018 20.7744 18.5401 21.0103L19.3121 21.7748C19.645 22.1047 20.1795 22.0971 20.5042 21.7751L21.6226 20.6678C21.9465 20.3475 21.9573 19.8182 21.6229 19.4875L20.8505 18.7227C20.6122 18.4868 20.5656 18.1211 20.7371 17.8339C21.154 17.1359 21.469 16.3846 21.6732 15.6009C21.7574 15.2781 22.0514 15.0527 22.388 15.0527H23.4778C23.9427 15.0527 24.3209 14.6782 24.3209 14.2179V12.6522C24.3209 12.1919 23.9427 11.8174 23.4778 11.8174H22.388C22.0513 11.8174 21.7574 11.5919 21.6732 11.2692C21.469 10.4855 21.154 9.73414 20.7371 9.03612C20.5656 8.74894 20.6122 8.38322 20.8505 8.1473L21.6226 7.38286C21.9563 7.05281 21.9476 6.52367 21.6229 6.20253L20.5046 5.09527C20.1804 4.77389 19.6458 4.76448 19.3125 5.09498L18.5402 5.8597C18.3019 6.09567 17.9325 6.14186 17.6425 5.97201C16.9374 5.55917 16.1786 5.24729 15.3872 5.04504C15.0612 4.96177 14.8335 4.67069 14.8335 4.33737V3.25813C14.8335 2.79784 14.4552 2.42334 13.9903 2.42334H12.4091C11.9442 2.42334 11.5659 2.79784 11.5659 3.25813V4.33727C11.5659 4.67059 11.3382 4.96167 11.0122 5.04494C10.2207 5.24719 9.46193 5.55908 8.7569 5.97191C8.46677 6.14172 8.09745 6.09553 7.85918 5.85961L7.08719 5.09517C6.75434 4.76522 6.21978 4.77287 5.89514 5.09483L4.77676 6.20214C4.45287 6.52245 4.44204 7.05174 4.77647 7.38247L5.54881 8.1472C5.78708 8.38312 5.83373 8.74884 5.66224 9.03602C5.24529 9.73404 4.93035 10.4854 4.72608 11.2691C4.64193 11.5918 4.34795 11.8173 4.01136 11.8173H2.92148C2.4566 11.8173 2.07833 12.1918 2.07833 12.6521V14.2178C2.07833 14.6781 2.4566 15.0526 2.92148 15.0526H4.01131C4.34796 15.0526 4.64188 15.2781 4.72603 15.6008C4.9303 16.3845 5.24529 17.1359 5.66219 17.8339C5.83368 18.1211 5.78703 18.4868 5.54876 18.7227L4.77672 19.4871C4.44298 19.8172 4.45169 20.3463 4.77642 20.6675L5.8947 21.7747C6.21884 22.0961 6.75345 22.1055 7.08679 21.775L7.85908 21.0103C8.03466 20.8365 8.39994 20.689 8.75686 20.898Z" fill="white"/>
<path d="M13.1997 18.8628C10.1769 18.8628 7.71777 16.4279 7.71777 13.435C7.71777 10.442 10.1769 8.00711 13.1997 8.00711C16.2225 8.00711 18.6816 10.442 18.6816 13.435C18.6816 16.4279 16.2225 18.8628 13.1997 18.8628ZM13.1997 9.46883C10.9909 9.46883 9.19405 11.248 9.19405 13.435C9.19405 15.6219 10.991 17.4011 13.1997 17.4011C15.4084 17.4011 17.2053 15.6219 17.2053 13.435C17.2053 11.248 15.4084 9.46883 13.1997 9.46883Z" fill="white"/>
</g>
<defs>
<clipPath id="clip0_1846_182">
<rect width="25.1951" height="24.9467" fill="white" transform="translate(0.602051 0.961624)"/>
</clipPath>
</defs>
</svg>
